<?xml version="1.0" encoding="UTF-8" standalone="no"?>
<svg
   width="543.89587"
   height="597.4137"
   viewBox="0 0 543.89587 597.4137"
   version="1.1"
   id="svg63"
   xmlns="http://www.w3.org/2000/svg"
   xmlns:svg="http://www.w3.org/2000/svg">
  <path
     fill="#034c67"
     d="m 119.71965,18.952721 c 16.314,-23.1390002 34.757,-18.59600017 60.228,-18.58400017 l 68.215,0.027 97.758,0.006 c 17.281,-0.01 34.991,-0.467 52.206,0.531 10.36,0.59999997 21.501,9.70200017 27.03,18.01300017 14.047,0.375 26.092,4.855 35.881,15.299 6.384,6.84 10.901,15.209 13.116,24.3 2.249,9.289 1.496,28.104 1.48,38.345 l 0.046,49.225999 c 11.129,3.6 19.698,10.84 24.986,21.32 2.324,4.591 3.85,9.545 4.511,14.648 0.452,3.442 0.735,10.365 0.455,13.881 -1.234,15.461 2.428,39.618 -2.414,53.957 -3.284,9.964 -10.5,18.151 -19.974,22.66 -2.301,1.121 -5.21,2.176 -7.677,2.85 l 0.032,35.032 c 2.595,1.584 20.9,12.829 22.138,14.063 5.993,3.747 20.337,12.557 24.898,17.199 6.225,5.328 7.593,10.277 5.519,18.081 l 0.269,54.385 c 4.474,0.158 9.466,0.877 12.351,4.634 11.116,14.481 -10.136,31.585 -21.747,15.207 -0.3,-0.426 -0.594,-0.856 -0.881,-1.29 -2.374,1.215 -6.995,4.075 -9.561,2.824 -5.63,-1.666 -26.708,-15.571 -32.953,-19.532 0.334,15.356 -5.323,30.239 -15.772,41.497 -7.682,8.325 -26.835,17.262 -37.363,23.104 l -59.633,33.091 -41.906,23.175 c -15.448,8.537 -27.224,17.036 -45.567,18.051 -23.771,1.316 -37.902,-10.02 -57.85,-21.06 -20.633,-11.287 -41.201,-22.694 -61.703,-34.218 -12.339,-6.884 -24.715,-13.702 -37.125,-20.456 -15.353,-8.357 -31.692001,-14.701 -41.354001,-29.932 -6.99,-11.02 -8.878,-20.28 -9.401,-33.078 -5.846,3.698 -27.645,18.249 -32.735,19.887 -2.305,0.249 -6.936,-2.554 -9.167,-3.724 -2.605,6.562 -9.825,10.01 -16.5650004,7.91 -6.741,-2.099 -10.727,-9.037 -9.14500004,-15.917 1.58300004,-6.881 8.19800004,-11.381 15.17900044,-10.325 -0.1,-17.806 -0.053,-35.612 0.142,-53.416 -2.852,-9.04 -1.145,-13.524 5.629,-19.638 4.143,-3.226 15.768,-11.241 20.28,-13.331 2.336,-2.008 23.206,-14.865 26.56,-16.745 -0.279,-11.585 -0.086,-24.003 -0.101,-35.65 -1.847,-0.582 -3.661,-1.261 -5.435,-2.036 -27.207,-11.581 -25.348,-36.998 -24.901,-61.927 0.165,-9.203 -0.695,-19.617 0.368,-28.659 0.503,-4.682 1.745,-9.255 3.678,-13.55 5.342,-11.801 14.315,-18.783 26.181,-23.286 -0.161,-15.771 -0.202,-31.544 -0.122,-47.315999 -0.004,-10.739 -0.788,-30.882 1.72,-40.671 2.322,-8.971 6.925,-17.189 13.362,-23.855 10.347,-10.697 22.290001,-14.668 36.834001,-15.007 z"
     id="path2" />
  <path
     fill="#fe2d32"
     d="m 475.59865,310.46372 c 2.595,1.584 20.9,12.829 22.138,14.063 5.993,3.747 20.337,12.557 24.898,17.199 6.225,5.328 7.593,10.277 5.519,18.081 l 0.269,54.385 c 4.474,0.158 9.466,0.877 12.351,4.634 11.116,14.481 -10.136,31.585 -21.747,15.207 -0.3,-0.426 -0.594,-0.856 -0.881,-1.29 -2.374,1.215 -6.995,4.075 -9.561,2.824 -5.63,-1.666 -26.708,-15.571 -32.953,-19.532 -0.714,-34.186 -0.007,-71.185 -0.033,-105.571 z"
     id="path3" />
  <defs
     id="defs4">
    <linearGradient
       id="gradient_0"
       gradientUnits="userSpaceOnUse"
       x1="714.58911"
       y1="606.36877"
       x2="740.82111"
       y2="604.09564"
       gradientTransform="translate(-241.88835,-236.08928)">
      <stop
         offset="0"
         stop-color="#B01318"
         id="stop3" />
      <stop
         offset="1"
         stop-color="#F53133"
         id="stop4" />
    </linearGradient>
  </defs>
  <path
     fill="url(#gradient_0)"
     d="m 475.59865,310.46372 c 2.595,1.584 20.9,12.829 22.138,14.063 -1.204,1.106 -1.326,1.269 -1.353,3.058 -0.417,27.198 0.167,54.336 0.172,81.549 0,4.524 -0.131,15.692 1.895,19.8 0.879,1.781 9.71,4.856 10.216,6.445 l -0.082,0.188 c -5.63,-1.666 -26.708,-15.571 -32.953,-19.532 -0.714,-34.186 -0.007,-71.185 -0.033,-105.571 z"
     id="path4"
     style="fill:url(#gradient_0)" />
  <defs
     id="defs6">
    <linearGradient
       id="gradient_1"
       gradientUnits="userSpaceOnUse"
       x1="768.4859"
       y1="674.83325"
       x2="776.04956"
       y2="651.51605"
       gradientTransform="translate(-241.88835,-236.08928)">
      <stop
         offset="0"
         stop-color="#FFAE06"
         id="stop5" />
      <stop
         offset="1"
         stop-color="#FECB10"
         id="stop6" />
    </linearGradient>
  </defs>
  <path
     fill="url(#gradient_1)"
     d="m 518.14565,432.74272 c -2.532,-9.209 0.761,-16.148 10.277,-18.551 4.474,0.158 9.466,0.877 12.351,4.634 11.116,14.481 -10.136,31.585 -21.747,15.207 -0.3,-0.426 -0.594,-0.856 -0.881,-1.29 z"
     id="path6"
     style="fill:url(#gradient_1)" />
  <path
     fill="#fe2d32"
     d="m 68.135649,310.90972 c -0.387,22.067 -0.543,44.138 -0.466,66.208 -0.014,11.625 -0.462,27.87 0.288,39.091 -5.846,3.698 -27.645,18.249 -32.735,19.887 -2.305,0.249 -6.936,-2.554 -9.167,-3.724 -2.605,6.562 -9.825,10.01 -16.5650004,7.91 -6.741,-2.099 -10.727,-9.037 -9.14500004,-15.917 1.58300004,-6.881 8.19800004,-11.381 15.17900044,-10.325 -0.1,-17.806 -0.053,-35.612 0.142,-53.416 -2.852,-9.04 -1.145,-13.524 5.629,-19.638 4.143,-3.226 15.768,-11.241 20.28,-13.331 2.336,-2.008 23.206,-14.865 26.56,-16.745 z"
     id="path7" />
  <defs
     id="defs8">
    <linearGradient
       id="gradient_2"
       gradientUnits="userSpaceOnUse"
       x1="312.71228"
       y1="607.00067"
       x2="285.34354"
       y2="604.40997"
       gradientTransform="translate(-241.88835,-236.08928)">
      <stop
         offset="0"
         stop-color="#B81114"
         id="stop7" />
      <stop
         offset="1"
         stop-color="#FA3235"
         id="stop8" />
    </linearGradient>
  </defs>
  <path
     fill="url(#gradient_2)"
     d="m 68.135649,310.90972 c -0.387,22.067 -0.543,44.138 -0.466,66.208 -0.014,11.625 -0.462,27.87 0.288,39.091 -5.846,3.698 -27.645,18.249 -32.735,19.887 0.764,-1.887 7.532,-4.615 9.434,-6.039 0.176,-0.131 1.239,-0.993 1.254,-1.186 1.953,-25.622 0.878,-52.634 1.146,-78.323 0.096,-9.261 -1.374,-13.118 -0.533,-21.732 0.155,-1.595 0.522,-1.449 -0.192,-2.779 -1.766,0.704 -2.927,1.097 -4.756,1.618 2.336,-2.008 23.206,-14.865 26.56,-16.745 z"
     id="path8"
     style="fill:url(#gradient_2)" />
  <path
     fill="#febe05"
     d="m 26.055649,432.37172 c -2.605,6.562 -9.825,10.01 -16.5650004,7.91 -6.741,-2.099 -10.727,-9.037 -9.14500004,-15.917 1.58300004,-6.881 8.19800004,-11.381 15.17900044,-10.325 4.071,0.615 7.638,3.055 9.689,6.625 2.051,3.569 2.361,7.88 0.842,11.707 z"
     id="path9" />
  <path
     fill="#21e1e5"
     d="m 119.71965,18.952721 c 16.314,-23.1390002 34.757,-18.59600017 60.228,-18.58400017 l 68.215,0.027 97.758,0.006 c 17.281,-0.01 34.991,-0.467 52.206,0.531 10.36,0.59999997 21.501,9.70200017 27.03,18.01300017 l -15.242,-0.002 -177.1,0.037 c -32.921,-0.003 -67.594,0.625 -100.412,-0.043 z"
     id="path10" />
  <path
     fill="#08cecd"
     d="m 132.40265,18.937721 c 12.008,-8.862 17.851,-7.585 32.172,-7.593 l 28.697,0.012 95.442,0.078 71.453,0.017 c 12.318,-0.014 25.158,-0.488 37.421,0.609 3.912,0.35 9.947,3.572 12.327,6.883 l -177.1,0.037 c -32.921,-0.003 -67.594,0.625 -100.412,-0.043 z"
     id="path11" />
  <defs
     id="defs12">
    <linearGradient
       id="gradient_3"
       gradientUnits="userSpaceOnUse"
       x1="331.6554"
       y1="674.8009"
       x2="710.95648"
       y2="545.68726"
       gradientTransform="translate(-241.88835,-236.08928)">
      <stop
         offset="0"
         stop-color="#039EA1"
         id="stop11" />
      <stop
         offset="1"
         stop-color="#01C4C2"
         id="stop12" />
    </linearGradient>
  </defs>
  <path
     fill="url(#gradient_3)"
     d="m 84.181649,276.35372 c 15.940001,0.255 32.147001,-0.078 48.129001,-0.041 l 130.511,0.039 c 65.029,-0.052 131.278,0.661 196.191,-0.162 0.685,30.322 0.092,61.895 0.145,92.432 0.028,16.159 1.313,45.541 -1.705,60.478 -3.548,17.558 -20.156,25.285 -34.312,32.976 l -26.828,14.68 -69.593,38.552 c -11.954,6.58 -24.59,13.844 -36.837,19.757 -6.032,2.738 -11.441,3.408 -17.879,3.6 -15.06,0.451 -25.926,-7.347 -38.664,-14.375 l -38.039,-20.986 -56.155,-31.028 c -11.513,-6.292 -23.283,-12.573 -34.532,-18.976 -21.889001,-12.458 -20.974001,-33.875 -20.529001,-55.99 0.151,-7.51 0.027,-15.45 0.034,-22.992 z"
     id="path12"
     style="fill:url(#gradient_3)" />
  <path
     fill="#01868d"
     d="m 106.90665,296.83372 20.667,-0.025 c 4.157,0.002 8.353,-0.002 12.314,0.201 18.21,0.935 34.495,13.807 38.683,31.707 0.18,0.77 1.219,5.564 1.453,6.044 0.424,1.485 1.225,5.875 1.73,6.832 2.091,-0.521 1.854,-0.126 3.108,-1.444 0.178,-1.963 0.271,-3.716 0.353,-5.686 1.02,7.27 -0.748,39.479 0.673,42.844 l 0.092,-58.459 15.653,-0.083 0.19,6.05 c 6.864,-5.355 10.055,-6.401 18.558,-6.421 0.077,5.306 0.2,12.483 -0.382,17.614 l 0.704,0.471 c 6.431,-11.142 11.281,-14.944 23.417,-19.29 11.846,6.014 18.777,12.299 23.956,24.71 -2.819,3.861 -4.826,5.559 -8.219,8.899 l 0.319,0.657 c -3.857,3.33 -10.377,6.815 -15.197,8.418 1.118,4.147 1.617,3.089 0.437,6.901 4.09,0.997 7.043,-4.496 10.781,-4.633 2.251,1.543 3.405,2.927 5.269,4.89 l 0.751,-0.401 0.138,-0.963 c 1.195,-7.989 6.52,-3.235 6.19,-13.215 l 0.504,-0.093 c 1.375,-26.499 21.706,-37.677 46.732,-33.192 13.29,2.382 19.844,7.454 27.556,18.347 1.397,1.216 2.036,2.477 3.017,4.043 11.54,-7.654 4.798,-6.581 7.702,-14.943 0.054,-2.578 0.07,-5.156 0.05,-7.733 2.975,-0.071 13.423,-0.869 15.167,0.741 l 0.305,3.276 c 2.964,0.68 14.37,-13.096 29.785,2.924 2.955,-2.819 5.907,-5.436 9.93,-6.594 17.523,-5.047 30.941,6.103 31.072,23.994 0.099,13.436 -0.018,26.561 -0.091,39.822 -4.706,0.036 -9.746,-0.021 -14.421,0.132 3.926,0.255 7.856,0.429 11.788,0.521 -5.608,4.603 -12.048,11.083 -17.392,15.075 -4.536,0.051 -20.969,-0.394 -23.932,0.5 11.544,0.058 31.604,-0.592 42.263,0.328 0.955,1.029 0.621,0.987 0.658,2.84 -0.809,0.912 -1.339,1.234 -2.852,1.2 -7.435,-0.165 -15.038,-0.112 -22.456,-0.102 l -56.695,-0.1 -172.493,0.053 -53.256,0.004 c -5.09,0.003 -20.904,-0.298 -25.156,0.381 2.754,0.424 4.537,-0.418 5.909,0.338 l 0.047,0.426 c -2.233,0.043 -3.734,0.078 -5.946,-0.118 -1.78,-1.334 -0.348,-2.769 -0.855,-3.125 -3.624,-2.544 -3.606,-6.469 -4.935,-10.695 -2.551001,-8.106 -1.497001,-16.505 -1.793001,-24.982 -0.531,-15.205 -2.179,-30.79 -0.781,-45.986 0.267,-2.912 2.690001,-7.277 4.062001,-9.913 2.306,-1.099 3.403,-1.599 4.261,-4.11 l 0.667,2.497 z"
     id="path13" />
  <path
     fill="#fcfcfb"
     d="m 399.36265,325.82172 c 2.955,-2.819 5.907,-5.436 9.93,-6.594 17.523,-5.047 30.941,6.103 31.072,23.994 0.099,13.436 -0.018,26.561 -0.091,39.822 -4.706,0.036 -9.746,-0.021 -14.421,0.132 3.926,0.255 7.856,0.429 11.788,0.521 -5.608,4.603 -12.048,11.083 -17.392,15.075 -4.536,0.051 -20.969,-0.394 -23.932,0.5 -11.64,0.628 -29.243,0.1 -41.335,0.002 -7.572,0.125 -15.145,0.128 -22.718,0.008 2.278,-1.873 18.558,0.684 21.231,-1.396 3.748,-2.916 12.84,-10.22 14.322,-14.501 l -13.53,-0.164 c -0.386,-18.603 -0.064,-37.899 -0.231,-56.607 0.054,-2.578 0.07,-5.156 0.05,-7.733 2.975,-0.071 13.423,-0.869 15.167,0.741 l 0.305,3.276 c 2.964,0.68 14.37,-13.096 29.785,2.924 z"
     id="path14" />
  <defs
     id="defs15">
    <linearGradient
       id="gradient_4"
       gradientUnits="userSpaceOnUse"
       x1="639.87244"
       y1="592.89673"
       x2="589.87256"
       y2="622.98767"
       gradientTransform="translate(-241.88835,-236.08928)">
      <stop
         offset="0"
         stop-color="#00777F"
         id="stop14" />
      <stop
         offset="1"
         stop-color="#01A8AB"
         id="stop15" />
    </linearGradient>
  </defs>
  <path
     fill="url(#gradient_4)"
     d="m 367.81665,383.38472 1.761,-0.17 c 2.382,-4.103 -1.348,-35.507 1.545,-43.089 1.099,-2.97 3.593,-5.208 6.665,-5.98 5.265,-1.36 11.065,2.202 11.409,7.525 0.884,13.698 0.276,27.992 0.416,41.702 l 10.192,0.042 1.515,1.737 c -4.308,5.1 -9.208,8.838 -13.528,13.646 -10.526,0.621 -22.706,-0.35 -32.81,0.476 -7.572,0.125 -15.145,0.128 -22.718,0.008 2.278,-1.873 18.558,0.684 21.231,-1.396 3.748,-2.916 12.84,-10.22 14.322,-14.501 z"
     id="path15"
     style="fill:url(#gradient_4)" />
  <defs
     id="defs17">
    <linearGradient
       id="gradient_5"
       gradientUnits="userSpaceOnUse"
       x1="674.01361"
       y1="594.25702"
       x2="624.56049"
       y2="619.32166"
       gradientTransform="translate(-241.88835,-236.08928)">
      <stop
         offset="0"
         stop-color="#00747D"
         id="stop16" />
      <stop
         offset="1"
         stop-color="#02B6B6"
         id="stop17" />
    </linearGradient>
  </defs>
  <path
     fill="url(#gradient_5)"
     d="m 405.55065,383.39372 c 0.059,-7.755 -1.472,-39.217 1.439,-44.452 1.33,-2.392 3.493,-4.209 6.169,-4.885 2.449,-0.618 5.096,-0.284 7.229,1.104 2.079,1.352 3.388,3.472 3.958,5.862 0.645,2.706 0.305,6.06 0.3,8.844 -0.015,8.1 -1.041,25.36 0.265,32.704 l 0.942,0.605 c 3.926,0.255 7.856,0.429 11.788,0.521 -5.608,4.603 -12.048,11.083 -17.392,15.075 -4.536,0.051 -20.969,-0.394 -23.932,0.5 -11.64,0.628 -29.243,0.1 -41.335,0.002 10.104,-0.826 22.284,0.145 32.81,-0.476 4.32,-4.808 9.22,-8.546 13.528,-13.646 l -1.515,-1.737 z"
     id="path17"
     style="fill:url(#gradient_5)" />
  <path
     fill="#fcfcfb"
     d="m 106.90665,296.83372 20.667,-0.025 c 4.157,0.002 8.353,-0.002 12.314,0.201 18.21,0.935 34.495,13.807 38.683,31.707 0.18,0.77 1.219,5.564 1.453,6.044 0.076,1.504 0.117,3.01 0.123,4.516 0.013,12.43 -3.404,23.544 -12.497,32.288 -12.366,11.892 -23.722,11.78 -39.502,11.72 l -21.093,-0.099 -0.089,-74.978 z"
     id="path18" />
  <path
     fill="#01868d"
     d="m 123.38665,313.44472 c 10.802,-0.169 22.146,-1.683 30.809,6.038 12.36,11.015 12.507,28.193 1.836,40.301 -10.65,8.89 -19.245,7.255 -32.563,7.173 -0.156,-17.837 -0.183,-35.675 -0.082,-53.512 z"
     id="path19" />
  <path
     fill="#fcfcfb"
     d="m 269.04865,352.35872 c 1.375,-26.499 21.706,-37.677 46.732,-33.192 13.29,2.382 19.844,7.454 27.556,18.347 5.179,12.5 3.359,31.519 3.281,45.665 -9.853,0.129 -19.707,0.202 -29.561,0.218 -7.053,0.026 -17.856,0.589 -24.424,-1.087 -5.325,-1.349 -10.197,-4.084 -14.121,-7.928 -6.461,-6.347 -8.558,-13.285 -9.463,-22.023 z"
     id="path20" />
  <defs
     id="defs21">
    <linearGradient
       id="gradient_6"
       gradientUnits="userSpaceOnUse"
       x1="561.09021"
       y1="574.5083"
       x2="541.26501"
       y2="603.47266"
       gradientTransform="translate(-241.88835,-236.08928)">
      <stop
         offset="0"
         stop-color="#007379"
         id="stop20" />
      <stop
         offset="1"
         stop-color="#019B9E"
         id="stop21" />
    </linearGradient>
  </defs>
  <path
     fill="url(#gradient_6)"
     d="m 298.37165,334.49672 c 7.333,-0.601 6.257,1.541 10.631,1.953 21.195,1.995 21.308,9.991 21.104,30.351 -5.452,0.02 -10.107,0.409 -15.212,-1.665 -1.868,-1.06 -3.65,-2.439 -5.397,-3.706 -7.378,7.566 -18.722,5.401 -22.573,-4.503 -1.738,-4.476 -1.534,-9.474 0.562,-13.794 2.439,-4.93 5.982,-6.949 10.885,-8.636 z"
     id="path21"
     style="fill:url(#gradient_6)" />
  <path
     fill="#fcfcfb"
     d="m 220.70265,336.47872 c 6.431,-11.142 11.281,-14.944 23.417,-19.29 11.846,6.014 18.777,12.299 23.956,24.71 -2.819,3.861 -4.826,5.559 -8.219,8.899 -0.528,0.262 -4.302,2.798 -5.226,3.341 -7.36,4.327 -12,5.866 -20.257,7.574 6.86,8.506 13.551,7.036 21.527,0.992 l 9.117,8.941 c -3.341,4.01 -6.892,7.817 -11.767,9.931 -13.332,5.757 -27.839,-3.136 -32.883,-15.859 -4.144,-10.455 -3.895,-18.92 0.335,-29.239 z"
     id="path22" />
  <path
     fill="#01868d"
     d="m 243.34065,334.48972 c 2.359,0.326 4.933,1.219 6.551,3.032 1.502,5.138 -5.8,7.115 -9.456,8.531 l -0.486,0.141 -0.813,0.223 c -2.809,0.79 -3.668,1.64 -5.662,-0.67 -0.928,-4.818 5.41,-10.061 9.866,-11.257 z"
     id="path23" />
  <path
     fill="#fcfcfb"
     d="m 106.32965,403.87572 c -0.036,-1.592 -0.14,-2.33 0.281,-3.894 0.767,-0.518 0.942,-0.636 1.914,-0.639 21.488,-0.054 43.071,-0.049 64.55,-0.061 h 159.189 c 7.573,0.12 15.146,0.117 22.718,-0.008 12.092,0.098 29.695,0.626 41.335,-0.002 11.544,0.058 31.604,-0.592 42.263,0.328 0.955,1.029 0.621,0.987 0.658,2.84 -0.809,0.912 -1.339,1.234 -2.852,1.2 -7.435,-0.165 -15.038,-0.112 -22.456,-0.102 l -56.695,-0.1 -172.493,0.053 -53.256,0.004 c -5.09,0.003 -20.904,-0.298 -25.156,0.381 z"
     id="path24" />
  <path
     fill="#fcfcfb"
     d="m 201.82265,324.81472 c 6.864,-5.355 10.055,-6.401 18.558,-6.421 0.077,5.306 0.2,12.483 -0.382,17.614 -11.407,-0.727 -18.212,1.125 -18.25,14.194 l 0.145,33.237 -15.855,-0.04 -0.151,-6.092 0.092,-58.459 15.653,-0.083 z"
     id="path25" />
  <path
     fill="#fcfcfb"
     d="m 192.42565,416.50672 c 6.08,-0.089 13.312,-0.983 18.329,2.658 2.754,2.012 4.517,5.105 4.846,8.499 0.467,4.477 -0.902,7.091 -3.553,10.409 -5.557,4.709 -12.509,3.704 -19.506,3.552 z"
     id="path26" />
  <path
     fill="#07a2a7"
     d="m 198.80265,422.47372 c 7.595,-0.03 13.802,3.395 8.452,11.424 -3.128,1.869 -4.814,1.553 -8.409,1.568 z"
     id="path27" />
  <path
     fill="#fcfcfb"
     d="m 366.80365,416.49872 6.614,-0.002 -0.112,9.98 10.072,-0.056 -0.14,-9.83 6.398,-0.104 c 0.035,8.371 0.015,16.741 -0.06,25.111 l -6.292,-0.13 0.017,-9.011 -9.96,-0.05 0.03,9.134 -6.61,0.21 c 0.156,-8.417 0.17,-16.835 0.043,-25.252 z"
     id="path28" />
  <path
     fill="#fcfcfb"
     d="m 289.92165,416.55372 18.727,0.11 0.178,6.015 c -2.552,-0.028 -10.927,-0.569 -12.356,0.494 -0.01,2.141 -0.319,1.242 0.629,2.886 3.469,1.653 6.534,-1.739 8.983,1.602 0.156,1.574 0.425,2.646 -0.128,4.114 -1.593,0.847 -7.067,0.55 -9.231,0.535 -0.322,0.631 -0.337,1.181 -0.473,1.926 l 0.73,0.865 c 3.021,0.752 8.413,0.355 11.688,0.276 l -0.016,6.095 -18.563,-0.04 z"
     id="path29" />
  <path
     fill="#fcfcfb"
     d="m 154.99365,416.56172 c 6.172,-0.069 12.528,0.034 18.715,0.058 l -0.086,6.241 c -3.743,-0.043 -8.081,-0.195 -11.761,0.022 l -0.637,0.759 c -0.037,1.737 -0.266,1.195 0.418,2.59 2.839,0.949 5.714,-0.427 8.726,0.494 1.185,1.859 0.925,2.986 -0.068,4.871 -1.889,1.255 -6.517,0.734 -9.337,0.745 l 0.51,2.12 c 2.12,1.726 8.762,0.979 12.008,0.956 l -0.023,6.15 c -6.206,-0.046 -12.413,0.022 -18.616,0.202 z"
     id="path30" />
  <path
     fill="#fcfcfb"
     d="m 335.67665,416.49972 c 7.132,-0.584 9.258,0.128 14.173,5.15 l -4.948,3.666 c -3.708,-3.159 -8.938,-4.766 -11.521,1.079 -1.455,3.294 0.431,8.362 4.207,9.13 3.193,0.649 4.829,-0.991 7.336,-2.648 l 5.094,4.046 c -4.56,3.873 -9.255,6.323 -15.387,4.162 -3.267,-1.172 -5.925,-3.61 -7.372,-6.764 -1.46,-3.173 -1.566,-6.804 -0.293,-10.056 1.762,-4.391 4.7,-6.061 8.711,-7.765 z"
     id="path31" />
  <path
     fill="#fcfcfb"
     d="m 251.94365,416.81072 c 7.19,-0.09 14.38,-0.09 21.57,-10e-4 l 0.001,6.105 -7.872,-0.072 -0.028,9.443 0.018,9.166 -6.081,0.049 -0.153,-18.728 -7.459,0.122 z"
     id="path32" />
  <path
     fill="#fcfcfb"
     d="m 225.50065,423.99272 12.01,-0.059 -0.049,7.932 -11.944,0.06 z"
     id="path33" />
  <path
     fill="#fe2d32"
     d="m 157.57265,130.93072 c 3.247,-0.108 6.704,-0.051 9.968,-0.051 l 93.403,0.032 27.298,-0.044 c 8.951,-0.025 26.398,-2.71 26.445,10.709 -0.033,5.157 -0.446,36.106 0.329,39.492 l 0.084,62.957 0.011,15.854 -157.775,0.173 c 0.712,-38.912 0.014,-79.141 0.145,-118.216 z"
     id="path34" />
  <path
     fill="#e01016"
     d="m 157.48065,141.83672 c 4.838,0.009 10.327,-0.109 15.112,0.082 l 0.197,102.212 c 25.166,0.135 50.334,0.115 75.5,-0.061 21.731,0.002 45.197,0.442 66.81,-0.044 l 0.011,15.854 -157.775,0.173 c 0.712,-38.912 0.014,-79.141 0.145,-118.216 z"
     id="path35" />
  <path
     fill="#fe7576"
     d="m 157.57265,130.93072 c 3.247,-0.108 6.704,-0.051 9.968,-0.051 l 93.403,0.032 27.298,-0.044 c 8.951,-0.025 26.398,-2.71 26.445,10.709 -39,0.725 -79.846,0.275 -118.924,0.279 -5.682,0.534 -17.215,0.171 -23.17,0.063 -4.785,-0.191 -10.274,-0.073 -15.112,-0.082 z"
     id="path36" />
  <path
     fill="#fe4f54"
     d="m 157.57265,130.93072 c 3.247,-0.108 6.704,-0.051 9.968,-0.051 2.281,3.67 4.124,6.457 5.806,10.478 6.865,0.222 16.031,-0.126 22.416,0.498 -5.682,0.534 -17.215,0.171 -23.17,0.063 -4.785,-0.191 -10.274,-0.073 -15.112,-0.082 z"
     id="path37" />
  <path
     fill="#fcfcfb"
     d="m 269.01665,155.68172 c 7.069,-1.143 13.736,3.632 14.929,10.692 1.193,7.061 -3.535,13.761 -10.587,15.004 -7.123,1.256 -13.906,-3.53 -15.111,-10.662 -1.205,-7.131 3.629,-13.88 10.769,-15.034 z"
     id="path38" />
  <path
     fill="#febe05"
     d="m 125.03765,35.010721 196.104,-0.075 c -3.711,4.036 -6.11,7.247 -9.041,11.934 -4.21,8.827 -5.934,14.289 -6.221,24.155 0.173,14.679 0.222,29.359999 0.149,44.039999 l -221.937001,-0.087 c 0.011,-14.43 -0.148,-28.895999 -0.012,-43.322999 0.099,-10.629 3.717,-20.487 11.598,-27.849 8.422001,-7.867 18.238001,-9.215 29.360001,-8.795 z"
     id="path39" />
  <path
     fill="#fa9804"
     d="m 84.091649,114.97772 c 0.011,-14.43 -0.148,-28.895999 -0.012,-43.322999 0.099,-10.629 3.717,-20.487 11.598,-27.849 8.422001,-7.867 18.238001,-9.215 29.360001,-8.795 -10.55,2.795 -13.161,3.537 -20.216,12.002 -8.988001,10.498 -5.703001,37.221 -5.563001,51.615 7.478001,-0.181 58.528001,0.664 61.118001,-0.802 l 0.432,-0.564 c 2.392,3.261999 6.156,5.234999 10.199,5.345999 4.043,0.111 7.911,-1.653 10.477,-4.777999 2.873,1.503 108.584,1.349 124.206,1.449 -0.064,-4.271 -0.698,-25.984 0.189,-28.254 0.173,14.679 0.222,29.359999 0.149,44.039999 z"
     id="path40" />
  <path
     fill="#fcfcfb"
     d="m 125.03765,35.010721 196.104,-0.075 c -3.711,4.036 -6.11,7.247 -9.041,11.934 -23.097,0.657 -48.963,0.059 -72.313,0.062 l -134.966,0.081 c 7.055,-8.465 9.666,-9.207 20.216,-12.002 z"
     id="path41" />
  <path
     fill="#fe2d32"
     d="m 160.80865,97.261721 c -4.024,-5.49 -3.17,-13.147 1.964,-17.616 5.135,-4.468 12.837,-4.257 17.718,0.487 4.882,4.743 5.314,12.436 0.994,17.697 -2.566,3.124999 -6.434,4.888999 -10.477,4.777999 -4.043,-0.111 -7.807,-2.084 -10.199,-5.345999 z"
     id="path42" />
  <path
     fill="#034c67"
     d="m 130.21265,62.259721 c 6.733,-1.759 13.612,2.301 15.325,9.046 1.714,6.745 -2.392,13.596 -9.148,15.264 -6.693,1.652 -13.464,-2.406 -15.162,-9.087 -1.697,-6.681 2.316,-13.48 8.985,-15.223 z"
     id="path43" />
  <path
     fill="#febe05"
     d="m 318.10165,173.71972 c 7.514,-11.944 15.318,-13.148 28.545,-12.739 27.331,-0.441 55.571,-0.064 82.983,-0.092 l 24.395,-0.025 c 14.336,-0.009 24.33,-0.882 32.179,13.966 1.196,3.045 2.505,6.601 2.649,9.899 0.727,16.627 0.167,33.377 0.288,50.029 0.024,3.214 -0.141,6.627 -0.675,9.789 -2.82,6.97 -5.655,11.244 -12.901,14.29 -5.182,1.52 -33.369,0.718 -40.266,0.838 -39.774,0.692 -80.515,-0.671 -120.188,0.205 l -0.011,-15.854 -0.084,-62.957 c 1.061,-3.135 1.454,-4.457 3.086,-7.349 z"
     id="path44" />
  <path
     fill="#fa9804"
     d="m 315.01565,181.06872 c 1.061,-3.135 1.454,-4.457 3.086,-7.349 5.023,1.981 9.319,-0.875 12.196,1.931 0.422,1.628 0.36,2.263 0.371,3.908 -0.005,2.637 0.122,6.689 -0.028,9.206 -0.577,5.97 -0.314,15.134 -0.3,21.417 l 0.14,34.259 c 45.049,0.848 91.429,-0.931 136.247,0.186 3.273,3.336 4.254,4.321 6.339,8.727 0.98,2.071 1.008,4.383 2.498,5.483 -5.182,1.52 -33.369,0.718 -40.266,0.838 -39.774,0.692 -80.515,-0.671 -120.188,0.205 l -0.011,-15.854 z"
     id="path45" />
  <path
     fill="#fcfcfb"
     d="m 318.10165,173.71972 c 7.514,-11.944 15.318,-13.148 28.545,-12.739 27.331,-0.441 55.571,-0.064 82.983,-0.092 l 24.395,-0.025 c 14.336,-0.009 24.33,-0.882 32.179,13.966 -6.069,-0.645 -14.011,-0.419 -20.251,-0.417 l -31.678,-0.004 -102.757,0.107 c -0.845,1.319 -0.754,3.385 -0.849,5.043 -0.011,-1.645 0.051,-2.28 -0.371,-3.908 -2.877,-2.806 -7.173,0.05 -12.196,-1.931 z"
     id="path46" />
  <path
     fill="#fba608"
     d="m 318.10165,173.71972 c 7.514,-11.944 15.318,-13.148 28.545,-12.739 -5.431,1.319 -10.91,3.286 -14.281,8.255 -0.918,1.353 -1.762,3.751 -0.848,5.28 -0.845,1.319 -0.754,3.385 -0.849,5.043 -0.011,-1.645 0.051,-2.28 -0.371,-3.908 -2.877,-2.806 -7.173,0.05 -12.196,-1.931 z"
     id="path47" />
  <path
     fill="#fba608"
     d="m 330.64065,188.76472 c 0.517,5.777 0.348,13.721 0.404,19.762 l 0.234,35.151 109.787,0.086 28.444,0.033 c 4.972,0.01 14.355,-0.186 18.956,0.75 -2.82,6.97 -5.655,11.244 -12.901,14.29 -1.49,-1.1 -1.518,-3.412 -2.498,-5.483 -2.085,-4.406 -3.066,-5.391 -6.339,-8.727 -44.818,-1.117 -91.198,0.662 -136.247,-0.186 l -0.14,-34.259 c -0.014,-6.283 -0.277,-15.447 0.3,-21.417 z"
     id="path48" />
  <path
     fill="#fcfcfb"
     d="m 381.94165,190.77972 c 5.169,-1.177 10.571,0.531 14.122,4.467 3.552,3.936 4.698,9.485 2.998,14.506 -1.701,5.022 -5.983,8.731 -11.195,9.699 -7.838,1.455 -15.399,-3.626 -17.012,-11.432 -1.613,-7.807 3.315,-15.469 11.087,-17.24 z"
     id="path49" />
  <path
     fill="#fcfcfb"
     d="m 430.71565,199.71172 c 5.077,-0.812 10.197,1.17 13.404,5.189 3.206,4.018 4.003,9.451 2.086,14.221 -1.918,4.77 -6.254,8.139 -11.349,8.819 -7.74,1.034 -14.872,-4.345 -16.005,-12.071 -1.133,-7.725 4.154,-14.926 11.864,-16.158 z"
     id="path50" />
  <path
     fill="#fe2d32"
     d="m 418.03565,34.799721 c 6.704,-0.179 12.074,-0.248 18.433,2.162 14.868,5.634 22.903,19.574 22.855,35.076 -0.075,24.326 0.18,48.579999 -0.059,72.864999 -7.13,-0.032 -35.975,1.005 -41.245,-0.296 -3.3,-0.792 -10.767,-0.585 -14.464,-0.543 l -28.573,0.303 c -5.187,0.051 -16.089,0.7 -20.348,-0.587 -25.447,-7.687 -32.824,-33.61 -31.519,-57.348999 0.992,-18.069 -2.028,-24.167 9.133,-39.603 12.059,-14.968 24.18,-11.879 41.547,-11.921 11.682,-0.073 23.365,-0.057 35.047,0.048 2.874,-0.041 6.375,0.005 9.193,-0.155 z"
     id="path51" />
  <defs
     id="defs52">
    <linearGradient
       id="gradient_7"
       gradientUnits="userSpaceOnUse"
       x1="656.80591"
       y1="327.40768"
       x2="701.63428"
       y2="323.79843"
       gradientTransform="translate(-241.88835,-236.08928)">
      <stop
         offset="0"
         stop-color="#FA7F07"
         id="stop51" />
      <stop
         offset="1"
         stop-color="#FFCD09"
         id="stop52" />
    </linearGradient>
  </defs>
  <path
     fill="url(#gradient_7)"
     d="m 418.03565,34.799721 c 6.704,-0.179 12.074,-0.248 18.433,2.162 14.868,5.634 22.903,19.574 22.855,35.076 -0.075,24.326 0.18,48.579999 -0.059,72.864999 -7.13,-0.032 -35.975,1.005 -41.245,-0.296 1.611,-7.527 5.48,-16.012 7.474,-23.87 4.637,-18.279 4.856,-36.286999 -0.525,-54.426999 -1.893,-6.382 -5.008,-12.628 -6.778,-19.117 l -0.168,-0.639 -0.556,-3.258 z"
     id="path52"
     style="fill:url(#gradient_7)" />
  <path
     fill="#fe7576"
     d="m 408.84265,34.954721 c 2.874,-0.041 6.375,0.005 9.193,-0.155 l -0.569,8.496 0.556,3.258 c -27.615,-0.191 -58.281,-0.483 -85.774,0.274 12.059,-14.968 24.18,-11.879 41.547,-11.921 11.682,-0.073 23.365,-0.057 35.047,0.048 z"
     id="path53" />
  <path
     fill="#ba5206"
     d="m 408.84265,34.954721 c 2.874,-0.041 6.375,0.005 9.193,-0.155 l -0.569,8.496 c -2.605,-3.881 -4.978,-5.489 -8.624,-8.341 z"
     id="path54" />
  <path
     fill="#08cecd"
     d="m 105.79965,130.87272 c 4.586,-0.152 23.256,-0.48 27.286,0.173 8.83,0.116 7.644,3.409 7.479,10.742 l 0.057,118.209 -15.299,0.062 -41.222001,-0.06 -0.356,-127.517 0.31,-1.092 c 1.782,-1.082 18.455001,-0.552 21.745001,-0.517 z"
     id="path55" />
  <path
     fill="#21e1e5"
     d="m 140.56465,141.78772 0.057,118.209 -15.299,0.062 c 0.63,-4.169 0.351,-15.321 0.343,-19.988 l -0.046,-37.132 0.231,-37.765 c 0.045,-5.68 0.444,-18.422 -0.62,-23.227 z"
     id="path56" />
  <path
     fill="#05f7f8"
     d="m 105.79965,130.87272 c 4.586,-0.152 23.256,-0.48 27.286,0.173 8.83,0.116 7.644,3.409 7.479,10.742 l -15.334,0.159 c -12.726,0.458 -28.144001,0.045 -41.027001,0.047 l 0.037,-7.822 -0.496,-1.69 0.31,-1.092 c 1.782,-1.082 18.455001,-0.552 21.745001,-0.517 z"
     id="path57" />
  <path
     fill="#fcfcfb"
     d="m 133.08565,131.04572 c 8.83,0.116 7.644,3.409 7.479,10.742 l -15.334,0.159 c -2.368,-3.637 -1.732,-5.238 0.463,-8.667 3.204,-1.31 4.005,-1.565 7.392,-2.234 z"
     id="path58" />
  <path
     fill="#21e1e5"
     d="m 105.79965,130.87272 c 4.586,-0.152 23.256,-0.48 27.286,0.173 -3.387,0.669 -4.188,0.924 -7.392,2.234 -5.707,-1.158 -22.082,0.74 -28.389001,0.957 -4.57,0.157 -8.42,0.082 -13.064,-0.065 l -0.496,-1.69 0.31,-1.092 c 1.782,-1.082 18.455001,-0.552 21.745001,-0.517 z"
     id="path59" />
  <path
     fill="#08cecd"
     d="m 83.744649,132.48172 0.31,-1.092 c 1.782,-1.082 18.455001,-0.552 21.745001,-0.517 -4.003,1.872 -18.060001,2.538 -22.055001,1.609 z"
     id="path60" />
  <path
     fill="#07a2a7"
     d="m 66.753649,164.36272 c 0.421,0.107 0.141,0.004 0.721,0.528 0.327,30.895 0.353,61.793 0.08,92.689 -2.505,-2.004 -4.056,-3.257 -6.336,-5.537 -0.6,-0.657 -1.168,-1.342 -1.701,-2.054 -4.744,-6.434 -5.963,-13.16 -5.835,-21.019 0.252,-15.426 -0.924,-31.236 0.747,-46.563 0.891,-8.173 5.942,-13.566 12.324,-18.044 z"
     id="path61" />
  <path
     fill="#c4c3c3"
     d="m 238.86665,572.66072 c 5.862,-1.693 33.919,0.286 41.349,0.484 9.516,0.282 19.514,-1.044 28.968,0.016 14.47,1.623 28.326,1.775 42.789,2 3.189,0.05 22.703,4.567 23.979,6.822 -0.603,10.771 -26.43,8.366 -33.785,11.263 -1.988,0.783 -5.149,0.644 -7.494,0.987 -0.016,1.487 0.161,1.892 -0.408,3.181 -0.92,-0.994 -0.885,-3.126 -1.026,-4.614 -2.432,-0.171 -12.769,0.574 -15.502,0.856 -28.059,-0.45 -56.459,3.046 -84.668,0.886 -12.794,-0.98 -24.321,-1.003 -36.926,-4.767 -4.052,-1.21 -16.349,-2.15 -18.149,-6.451 1.11,-6.058 17.829,-5.838 22.526,-7.001 12.958,-3.211 25.094,-3.738 38.347,-3.662 z"
     id="path62" />
  <path
     fill="#9f9e9e"
     d="m 256.37065,579.14172 c 6.481,-0.231 13.72,0.595 20.234,1.133 3.828,0.316 28.431,-1.121 29.58,0.067 -2.576,0.118 -7.22,0.037 -9.205,1.409 1.884,0.108 5.536,-0.041 6.699,1.404 -1.647,1.873 -8.167,2.387 -10.757,2.749 l -0.011,0.315 1.761,-0.123 1.097,-0.018 0.6,0.675 -0.296,0.257 c -5.974,0.837 -11.897,0.544 -17.866,0.742 -7.859,0.262 -17.037,1.958 -24.752,0.147 -2.796,-0.656 -8.816,-2.052 -10.295,-4.37 l 0.441,-0.792 c 2.03,-1.066 4.231,-1.226 6.54,-1.439 l 0.643,-0.054 c -1.129,-1.091 -2.128,-1.032 -3.739,-1.294 l -0.699,-0.109 c 3.259,-0.505 6.719,-0.557 10.025,-0.699 z"
     id="path63" />
</svg>
