<?xml version="1.0" encoding="UTF-8" standalone="no"?>
<svg
   width="692.87677"
   height="269.21637"
   viewBox="0 0 692.87677 269.21637"
   version="1.1"
   id="svg49"
   xmlns="http://www.w3.org/2000/svg"
   xmlns:svg="http://www.w3.org/2000/svg">
  <path
     fill="#01556f"
     d="M 57.136045,9.7858672 C 65.780887,-2.7144015 77.811199,0.32551064 91.566332,0.32551064 l 40.194178,0.0276445 40.69967,0.0256699 c 6.77291,0.008886 14.14907,-0.2576866 20.84201,0.52228435 5.26332,0.61311641 8.10182,5.78264531 12.04216,8.60929961 6.37898,0.2231309 11.54653,1.98942 16.01112,6.753166 8.90056,9.499849 7.33864,20.822263 7.28928,32.815057 l -0.0977,21.357381 c 13.32368,5.907046 14.16388,15.308164 13.8124,28.39193 -0.40085,14.916207 3.77447,27.747217 -13.84004,34.084727 -0.002,4.75092 -0.22412,12.39759 0.08,16.94512 7.0612,4.25035 14.47685,9.99449 20.76006,13.69293 4.79238,3.94132 5.12609,5.24358 4.23751,11.51692 -0.11255,4.11311 -0.30014,21.12437 0.42553,24.57204 2.66276,0.67828 4.59196,1.14725 6.16967,3.59972 0.99224,1.54908 1.30719,3.4368 0.86982,5.22383 -0.42849,1.80183 -1.63992,3.31635 -3.30254,4.13088 -3.43187,1.71199 -6.48165,0.0997 -9.27178,-1.94005 l -1.4701,0.21227 c -5.3196,0.85204 -13.61197,-6.24471 -18.56627,-9.63215 -1.25387,22.48488 -11.95626,24.39927 -29.5372,33.97316 l -34.96343,19.10041 c -13.1588,7.32679 -29.14426,20.56359 -45.01617,12.26529 -24.601669,-12.8636 -48.701785,-27.00378 -73.07637,-40.32746 -8.434547,-4.6512 -14.127348,-14.09674 -13.776854,-23.8138 -2.95303,1.96474 -13.446107,9.50084 -16.411971,9.20267 l -2.818756,-0.94584 c -0.730606,0.96262 -2.805921,2.39126 -3.9284867,2.81975 -1.4681225,0.57461 -3.1050742,0.53413 -4.5425903,-0.11157 -6.5576798,-2.99647 -5.8487948,-11.45866 2.7891366,-13.36811 0.3396329,-2.98561 0.2211563,-21.45315 0.022708,-24.39927 -0.9645969,-5.444 -1.0771497,-8.07714 3.6698124,-11.31353 2.553171,-1.98744 7.853024,-5.16459 10.753726,-7.02763 1.078137,-1.06827 8.933136,-5.59012 10.54343,-6.49153 -0.178702,-5.60592 -0.102679,-11.17728 -0.06417,-16.78419 C 17.434536,126.88024 17.475016,119.89308 17.816623,105.02526 18.179951,89.26392 14.832,78.269291 32.03579,70.733192 31.994323,59.494699 31.927186,48.24041 31.993336,37.016726 c 0.04048,-6.978271 1.572776,-13.17361 6.029471,-18.684747 4.961208,-6.135113 11.386589,-8.8235446 19.113238,-8.5461118 z"
     id="path1"
     style="stroke-width:0.987305" />
  <path
     fill="#fa2f33"
     d="m 228.59933,149.85779 c 7.0612,4.25035 14.47685,9.99449 20.76006,13.69293 4.79238,3.94132 5.12609,5.24358 4.23751,11.51692 -0.11255,4.11311 -0.30014,21.12437 0.42553,24.57204 2.66276,0.67828 4.59196,1.14725 6.16967,3.59972 0.99224,1.54908 1.30719,3.4368 0.86982,5.22383 -0.42849,1.80183 -1.63992,3.31635 -3.30254,4.13088 -3.43187,1.71199 -6.48165,0.0997 -9.27178,-1.94005 l -1.4701,0.21227 c -5.3196,0.85204 -13.61197,-6.24471 -18.56627,-9.63215 -0.83526,-13.98715 -0.24781,-37.10391 0.1481,-51.37639 z"
     id="path2"
     style="stroke-width:0.987305" />
  <defs
     id="defs3">
    <linearGradient
       id="gradient_0"
       gradientUnits="userSpaceOnUse"
       x1="378.81219"
       y1="536.79291"
       x2="394.00766"
       y2="534.50873"
       gradientTransform="matrix(0.987305,0,0,0.987305,-148.01804,-350.70683)">
      <stop
         offset="0"
         stop-color="#AF1C1E"
         id="stop2" />
      <stop
         offset="1"
         stop-color="#F13534"
         id="stop3" />
    </linearGradient>
  </defs>
  <path
     fill="url(#gradient_0)"
     d="m 228.59933,149.85779 c 7.0612,4.25035 14.47685,9.99449 20.76006,13.69293 -4.96713,2.95797 -5.89717,0.93695 -8.61423,6.68504 -0.9883,-5.85669 3.96304,-3.86431 5.6612,-6.63271 -1.01988,-2.37743 -4.35105,-4.20395 -6.79266,-4.4409 -3.62044,6.5488 -1.14527,38.14157 -0.53314,46.82492 0.23498,3.3282 6.51325,3.50592 7.93694,4.87926 -5.3196,0.85204 -13.61197,-6.24471 -18.56627,-9.63215 -0.83526,-13.98715 -0.24781,-37.10391 0.1481,-51.37639 z"
     id="path3"
     style="fill:url(#gradient_0);stroke-width:0.987305" />
  <path
     fill="#df1a1d"
     d="m 249.35939,163.55072 c 4.79238,3.94132 5.12609,5.24358 4.23751,11.51692 -6.34738,4.70648 -11.10421,2.74372 -12.85174,-4.83188 2.71706,-5.74809 3.6471,-3.72707 8.61423,-6.68504 z"
     id="path4"
     style="stroke-width:0.987305" />
  <path
     fill="#f9bc0e"
     d="m 254.02243,199.63968 c 2.66276,0.67828 4.59196,1.14725 6.16967,3.59972 0.99224,1.54908 1.30719,3.4368 0.86982,5.22383 -0.42849,1.80183 -1.63992,3.31635 -3.30254,4.13088 -3.43187,1.71199 -6.48165,0.0997 -9.27178,-1.94005 0.0375,-0.71086 0.0829,-1.42074 0.13427,-2.13061 0.31989,-5.10733 1.18576,-5.9416 5.40056,-8.88377 z"
     id="path5"
     style="stroke-width:0.987305" />
  <path
     fill="#fa2f33"
     d="m 21.614785,157.28825 c 1.078137,-1.06827 8.933136,-5.59012 10.54343,-6.49153 l 0.108604,34.06498 c 0.01086,4.19309 0.256699,13.76007 -0.185613,17.57008 -2.95303,1.96474 -13.446107,9.50084 -16.411971,9.20267 l -2.818756,-0.94584 c -0.730606,0.96262 -2.805921,2.39126 -3.9284867,2.81975 -1.4681225,0.57461 -3.1050742,0.53413 -4.5425903,-0.11157 -6.5576798,-2.99647 -5.8487948,-11.45866 2.7891366,-13.36811 0.3396329,-2.98561 0.2211563,-21.45315 0.022708,-24.39927 -0.9645969,-5.444 -1.0771497,-8.07714 3.6698124,-11.31353 2.553171,-1.98744 7.853024,-5.16459 10.753726,-7.02763 z"
     id="path6"
     style="stroke-width:0.987305" />
  <defs
     id="defs7">
    <linearGradient
       id="gradient_1"
       gradientUnits="userSpaceOnUse"
       x1="170.07793"
       y1="535.64606"
       x2="184.65117"
       y2="537.81366"
       gradientTransform="matrix(0.987305,0,0,0.987305,-148.01804,-350.70683)">
      <stop
         offset="0"
         stop-color="#EC2D31"
         id="stop6" />
      <stop
         offset="1"
         stop-color="#C0131B"
         id="stop7" />
    </linearGradient>
  </defs>
  <path
     fill="url(#gradient_1)"
     d="m 21.614785,157.28825 c 1.078137,-1.06827 8.933136,-5.59012 10.54343,-6.49153 l 0.108604,34.06498 c 0.01086,4.19309 0.256699,13.76007 -0.185613,17.57008 -2.95303,1.96474 -13.446107,9.50084 -16.411971,9.20267 l 0.0089,-0.8945 c 5.822138,0.0997 7.265578,-7.42157 6.638639,-11.93849 C 21.145831,190.36 24.220298,163.84691 21.6148,157.28825 Z"
     id="path7"
     style="fill:url(#gradient_1);stroke-width:0.987305" />
  <path
     fill="#f9bc0e"
     d="m 7.1685386,200.02868 c 6.8736174,4.75782 5.0006994,3.50098 5.6819404,10.65993 -0.730606,0.96262 -2.805921,2.39126 -3.9284867,2.81975 -1.4681225,0.57461 -3.1050742,0.53413 -4.5425903,-0.11157 -6.5576798,-2.99647 -5.8487948,-11.45866 2.7891366,-13.36811 z"
     id="path8"
     style="stroke-width:0.987305" />
  <path
     fill="#df1a1d"
     d="m 7.1912466,175.62941 c -0.9645969,-5.444 -1.0771497,-8.07714 3.6698124,-11.31353 3.395342,1.11763 6.007751,1.49182 7.689132,4.97207 2.955991,6.11932 -4.020306,10.30253 -9.1424446,7.52228 -0.5677004,-0.30804 -1.6300406,-0.94683 -2.2164998,-1.18082 z"
     id="path9"
     style="stroke-width:0.987305" />
  <path
     fill="#1edfe5"
     d="M 57.136045,9.7858672 C 65.780887,-2.7144015 77.811199,0.32551064 91.566332,0.32551064 l 40.194178,0.0276445 40.69967,0.0256699 c 6.77291,0.008886 14.14907,-0.2576866 20.84201,0.52228435 5.26332,0.61311641 8.10182,5.78264531 12.04216,8.60929961 -2.4189,0.3682647 -4.45768,0.2636104 -6.89435,0.2438643 C 159.95991,9.0730329 121.18647,10.05244 82.674663,9.7651337 76.671849,9.720705 70.387652,10.067249 64.436178,9.6733144 62.16044,9.8342451 59.4493,9.7759941 57.136045,9.7858672 Z"
     id="path10"
     style="stroke-width:0.987305" />
  <path
     fill="#15d7dc"
     d="m 79.995117,5.9491999 c 25.103213,0.6190403 50.019833,0.3218615 75.100343,0.8204505 12.677,0.2517628 27.26936,-2.2115632 39.72422,-0.5637512 1.22228,1.1699564 2.43272,2.3527478 3.63032,3.5483742 C 159.95991,9.0730329 121.18647,10.05244 82.674663,9.7651337 76.671849,9.720705 70.387652,10.067249 64.436178,9.6733144 66.369321,8.0383373 102.16999,9.0088581 108.59339,8.4618911 105.70454,7.9465179 100.48861,6.8022314 97.756734,7.059918 90.129803,7.7796634 87.191583,9.1845984 79.995117,5.9491999 Z"
     id="path11"
     style="stroke-width:0.987305" />
  <defs
     id="defs12">
    <linearGradient
       id="gradient_2"
       gradientUnits="userSpaceOnUse"
       x1="225.96135"
       y1="597.90698"
       x2="337.02023"
       y2="462.34326"
       gradientTransform="matrix(0.987305,0,0,0.987305,-148.01804,-350.70683)">
      <stop
         offset="0"
         stop-color="#05A9A9"
         id="stop11" />
      <stop
         offset="1"
         stop-color="#0DCBC6"
         id="stop12" />
    </linearGradient>
  </defs>
  <path
     fill="url(#gradient_2)"
     d="m 188.68752,133.32142 c 10.45754,-0.0513 21.54004,-0.23597 31.94031,0.16389 0.91227,21.36824 -0.0444,43.15313 0.41368,64.5115 0.42355,19.74116 -8.73173,21.35935 -23.85921,29.71788 l -33.62366,18.34807 c -7.04936,3.85049 -20.01662,11.84273 -26.88728,14.43342 -11.14865,4.20295 -36.14524,-12.44696 -46.022234,-17.98278 -8.823545,-4.3165 -40.699674,-21.45117 -46.146636,-27.11041 -2.623269,-2.72397 -3.679686,-5.66219 -4.311561,-9.36063 -1.372354,-8.02976 -0.573624,-16.87897 -0.587447,-25.0351 -0.133286,-15.71592 -0.07207,-31.43381 0.183639,-47.14875 z"
     id="path12"
     style="fill:url(#gradient_2);stroke-width:0.987305" />
  <path
     fill="#fa2f33"
     d="m 104.44869,63.617685 26.25441,-0.122426 c 6.08476,-0.03752 19.22481,-2.129617 20.60703,5.209021 -0.3189,3.559235 -0.64372,15.133411 -0.0711,18.547512 -0.46601,9.768396 -0.10367,21.482768 -0.0444,31.390378 l 0.0128,7.14611 c -8.69223,0.56573 -21.22311,0.24683 -30.13748,0.2488 -15.30323,0.0839 -30.607445,0.0671 -45.91166,-0.0504 C 75.0724,106.98896 75.08326,87.991234 75.19383,68.993511 L 75.338,63.582142 c 9.703233,-0.06023 19.407454,-0.04838 29.11069,0.03554 z"
     id="path13"
     style="stroke-width:0.987305" />
  <path
     fill="#df1a1d"
     d="m 75.193853,68.993561 6.870656,-0.04937 c 0.410718,16.571915 0.541043,33.149759 0.389985,49.726609 20.825226,-0.36234 48.115326,-0.94781 68.740126,-0.0286 l 0.0128,7.14611 c -8.69223,0.56573 -21.22311,0.24683 -30.13748,0.2488 -15.30323,0.0839 -30.607445,0.0671 -45.91166,-0.0504 -0.08589,-18.99772 -0.07503,-37.99545 0.03554,-56.993173 z"
     id="path14"
     style="stroke-width:0.987305" />
  <path
     fill="#fb7172"
     d="m 104.44869,63.617685 26.25441,-0.122426 c 6.08476,-0.03752 19.22481,-2.129617 20.60703,5.209021 -7.59928,0.465021 -17.79321,0.195487 -25.55836,0.175741 H 82.420926 l -0.356417,0.06417 -6.870656,0.04937 0.144147,-5.411419 c 9.703233,-0.06023 19.407454,-0.04838 29.11069,0.03554 z"
     id="path15"
     style="stroke-width:0.987305" />
  <path
     fill="#fa2f33"
     d="m 75.338,63.582142 c 9.703233,-0.06023 19.407454,-0.04838 29.11069,0.03554 -5.348234,0.198448 -18.449771,-0.136248 -22.478963,0.549929 -0.477855,1.357544 0.0158,3.336103 0.451199,4.712407 l -0.356417,0.06417 -6.870656,0.04937 z"
     id="path16"
     style="stroke-width:0.987305" />
  <path
     fill="#fdfcfa"
     d="m 128.03145,75.543342 c 3.20085,-1.243017 6.80451,0.331735 8.06727,3.524679 1.26178,3.193932 -0.29224,6.807468 -3.47827,8.088002 -3.21269,1.291395 -6.86177,-0.27842 -8.13441,-3.498021 -1.27263,-3.219602 0.31791,-6.860783 3.54541,-8.11466 z"
     id="path17"
     style="stroke-width:0.987305" />
  <path
     fill="#f9bc0e"
     d="m 57.485551,16.989244 c 10.476293,0.602256 24.368662,0.201411 35.143121,0.197461 l 61.983008,-0.08293 c -1.82257,2.131591 -2.88096,3.374608 -4.44583,5.767836 -4.17137,9.307324 -2.89182,15.438488 -2.77334,25.689676 l -0.10663,7.348511 c -13.30394,0.367277 -27.81041,-0.03357 -41.24467,-0.0464 L 40.014201,56.111211 C 39.953971,39.706151 35.379792,19.324227 57.485551,16.98925 Z"
     id="path18"
     style="stroke-width:0.987305" />
  <path
     fill="#f5990e"
     d="m 40.014201,56.111205 c -0.06023,-16.40506 -4.634409,-36.786984 17.47135,-39.121961 -2.152325,1.745556 -5.45486,3.947246 -7.257679,5.687865 -5.58321,2.776301 -3.476301,20.041304 -3.515794,25.881213 6.130177,0.02863 24.681638,0.576586 29.686287,-0.947813 4.116075,2.712127 5.907046,3.177147 10.276858,0.358392 19.009567,1.472071 41.590227,-0.516361 60.717287,0.592383 l -0.10663,7.348511 c -13.30394,0.367277 -27.81041,-0.03357 -41.24467,-0.0464 z"
     id="path19"
     style="stroke-width:0.987305" />
  <path
     fill="#fdfcfa"
     d="m 57.485551,16.989244 c 10.476293,0.602256 24.368662,0.201411 35.143121,0.197461 l 61.983008,-0.08293 c -1.82257,2.131591 -2.88096,3.374608 -4.44583,5.767836 -17.7478,0.59337 -38.28769,-0.16883 -56.324767,0.05628 -11.070651,0.138223 -33.37782,0.650634 -43.613211,-0.250775 1.802819,-1.740619 5.105354,-3.942309 7.257679,-5.687865 z"
     id="path20"
     style="stroke-width:0.987305" />
  <path
     fill="#fa2f33"
     d="m 76.398365,47.610509 c -1.430605,-3.70733 -1.515513,-7.839202 2.976725,-9.303375 1.786035,-0.563751 3.724114,-0.383074 5.374888,0.501551 3.805074,2.022988 3.578981,5.812264 1.925245,9.160216 -4.369812,2.818755 -6.160783,2.353735 -10.276858,-0.358392 z"
     id="path21"
     style="stroke-width:0.987305" />
  <path
     fill="#01556f"
     d="m 61.609524,30.746352 c 2.119743,-0.683215 4.443859,-0.128349 6.026509,1.439491 1.581663,1.566853 2.159236,3.886032 1.495767,6.012687 -0.663469,2.125668 -2.456414,3.705356 -4.649219,4.094354 -3.08829,0.548942 -6.072913,-1.388151 -6.830176,-4.431025 -0.757263,-3.042874 0.972496,-6.152884 3.957119,-7.115507 z"
     id="path22"
     style="stroke-width:0.987305" />
  <path
     fill="#f9bc0e"
     d="m 151.23905,87.251792 c 2.877,-6.628766 5.75598,-9.131584 13.07883,-9.580808 20.40562,1.098871 41.4984,-1.028771 61.87637,0.589421 3.15444,0.250776 5.77771,3.672775 7.28829,6.141038 1.67546,4.314522 1.64781,29.708997 0.86587,34.357227 -1.22525,2.13357 -3.70042,6.15486 -6.41749,6.33257 -25.05681,1.63399 -51.68739,-0.34457 -76.72347,0.69704 l -0.0128,-7.14611 c -0.0592,-9.90761 -0.42158,-21.621982 0.0444,-31.390378 z"
     id="path23"
     style="stroke-width:0.987305" />
  <path
     fill="#f5990e"
     d="m 151.23905,87.251792 c 2.877,-6.628766 5.75598,-9.131584 13.07883,-9.580808 -2.86121,2.276726 -3.98378,3.169249 -5.70761,6.532998 -0.3189,11.019311 0.38406,22.910408 0.59139,33.996858 l 48.63958,0.01 c 6.09365,0.009 21.00097,-0.18956 26.50717,0.54796 -1.22525,2.13357 -3.70042,6.15486 -6.41749,6.33257 -25.05681,1.63399 -51.68739,-0.34457 -76.72347,0.69704 l -0.0128,-7.14611 c -0.0592,-9.90761 -0.42158,-21.621982 0.0444,-31.390378 z"
     id="path24"
     style="stroke-width:0.987305" />
  <path
     fill="#fdfcfa"
     d="m 164.31788,77.670984 c 20.40562,1.098871 41.4984,-1.028771 61.87637,0.589421 3.15444,0.250776 5.77771,3.672775 7.28829,6.141038 -22.95188,-1.064315 -51.33887,-0.03456 -74.87227,-0.197461 1.72383,-3.363749 2.8464,-4.256272 5.70761,-6.532998 z"
     id="path25"
     style="stroke-width:0.987305" />
  <path
     fill="#fdfcfa"
     d="m 183.88824,91.979996 c 3.71621,-0.634837 7.27347,1.766288 8.07615,5.449923 0.80169,3.683631 -1.43554,7.345551 -5.07968,8.314091 -2.50776,0.66545 -5.17842,-0.0997 -6.95359,-1.99238 -1.77419,-1.89365 -2.36559,-4.608737 -1.53822,-7.068113 0.82637,-2.460364 2.93822,-4.267132 5.49534,-4.703521 z"
     id="path26"
     style="stroke-width:0.987305" />
  <path
     fill="#fdfcfa"
     d="m 206.05126,96.84346 c 3.59675,-0.931028 7.27446,1.202538 8.25189,4.78645 0.97842,3.58491 -1.10677,7.28928 -4.67785,8.3141 -2.35275,0.67532 -4.88518,0.0326 -6.63173,-1.68237 -1.74555,-1.71495 -2.43272,-4.23652 -1.79985,-6.60112 0.63286,-2.363607 2.48899,-4.203943 4.85754,-4.81706 z"
     id="path27"
     style="stroke-width:0.987305" />
  <path
     fill="#fa2f33"
     d="m 197.4696,17.218299 c 3.77052,-0.375176 6.61791,-0.90832 10.30648,0.01382 4.80126,1.397037 8.27164,3.806061 10.72016,8.269667 4.16149,7.586452 2.42679,34.790654 2.13258,44.534367 -4.1457,0.601269 -15.09491,0.336671 -19.35217,-0.04443 -9.52651,-0.386036 -19.69377,0.491678 -29.03565,-0.155007 -19.39265,-1.341747 -20.84793,-36.252852 -11.97996,-47.488383 6.43328,-7.649639 27.35822,-5.662194 37.20856,-5.130037 z"
     id="path28"
     style="stroke-width:0.987305" />
  <path
     fill="#f5990e"
     d="m 197.4696,17.218299 c 3.77052,-0.375176 6.61791,-0.90832 10.30648,0.01382 4.80126,1.397037 8.27164,3.806061 10.72016,8.269667 4.16149,7.586452 2.42679,34.790654 2.13258,44.534367 -4.1457,0.601269 -15.09491,0.336671 -19.35217,-0.04443 7.84315,-17.413098 6.06798,-30.506737 -0.58053,-47.498256 -0.36531,-2.967839 -1.01594,-3.230462 -3.22652,-5.275171 z"
     id="path29"
     style="stroke-width:0.987305" />
  <path
     fill="#f9bc0e"
     d="m 207.77608,17.232121 c 4.80126,1.397037 8.27164,3.806061 10.72016,8.269667 4.16149,7.586452 2.42679,34.790654 2.13258,44.534367 l -4.69859,-0.420592 c -2.83455,-2.200703 -0.53907,-36.098833 -2.49985,-41.66822 -1.02483,-2.911563 -3.7804,-7.187581 -5.71848,-9.590681 l -0.4117,-0.501551 z"
     id="path30"
     style="stroke-width:0.987305" />
  <path
     fill="#fb7172"
     d="m 160.26104,22.348336 c 6.43328,-7.649639 27.35822,-5.662194 37.20856,-5.130037 2.21058,2.044709 2.86121,2.307332 3.22652,5.275171 -10.99266,0.0622 -30.08714,0.717771 -40.43508,-0.145134 z"
     id="path31"
     style="stroke-width:0.987305" />
  <path
     fill="#07ccca"
     d="m 60.156211,63.713454 c 2.044708,-0.144147 4.210855,-0.551904 6.017624,0.267559 1.418757,1.820591 1.155146,2.48406 1.103807,4.966144 l -0.122426,56.833223 c -4.803239,0.75727 -21.486719,0.20931 -27.341438,0.11453 -0.526233,-18.25922 -0.211283,-38.484162 -0.250775,-56.874692 -0.04344,-1.920308 -0.253737,-3.390405 0.415655,-5.175453 2.103947,-0.335684 16.548219,-0.04937 20.177553,-0.131311 z"
     id="path32"
     style="stroke-width:0.987305" />
  <path
     fill="#15d7dc"
     d="m 60.156211,63.713454 c 2.044708,-0.144147 4.210855,-0.551904 6.017624,0.267559 1.418757,1.820591 1.155146,2.48406 1.103807,4.966144 l -0.122426,56.833223 c -1.962763,-0.35049 -4.678839,-0.28434 -6.732433,-0.30804 -0.622989,-6.64653 -0.232017,-55.651418 -0.565726,-56.495563 L 59.229131,68.82177 c 0.0859,-1.706063 0.559802,-3.417063 0.92708,-5.108316 z"
     id="path33"
     style="stroke-width:0.987305" />
  <path
     fill="#fdfcfa"
     d="m 60.156211,63.713454 c 2.044708,-0.144147 4.210855,-0.551904 6.017624,0.267559 1.418757,1.820591 1.155146,2.48406 1.103807,4.966144 l -7.420585,0.02962 -0.627926,-0.155007 c 0.0859,-1.706063 0.559802,-3.417063 0.92708,-5.108316 z"
     id="path34"
     style="stroke-width:0.987305" />
  <path
     fill="#1edfe5"
     d="m 39.563003,69.020218 c -0.04344,-1.920308 -0.253737,-3.390405 0.415655,-5.175453 2.103947,-0.335684 16.548219,-0.04937 20.177553,-0.131311 -0.367278,1.691253 -0.841184,3.402253 -0.92708,5.108316 -4.293789,0.494639 -15.039617,0.209308 -19.666128,0.198448 z"
     id="path35"
     style="stroke-width:0.987305" />
  <path
     fill="#05a0a6"
     d="m 31.243971,79.571546 0.782933,0.464034 c 0.419605,3.386456 0.259661,15.344694 0.186601,19.250473 -0.135261,7.250767 0.414668,18.709427 -0.245839,25.629447 -1.281522,-0.12933 -1.842312,-1.12355 -3.036951,-2.25994 -6.079824,-7.74738 -3.338078,-19.01747 -3.886032,-28.748345 -0.328773,-5.85768 1.960788,-10.354855 6.199288,-14.335669 z"
     id="path36"
     style="stroke-width:0.987305" />
  <path
     fill="#01556f"
     d="m 302.66004,40.811927 c 12.37192,-0.208322 25.68573,-0.251763 38.02901,0.171791 28.43241,0.97447 48.88246,22.747507 49.34452,51.119691 0.21326,13.933831 -5.14781,27.375991 -14.89251,37.338891 -14.71479,14.39688 -27.11831,14.49956 -46.32139,14.48475 l -26.16457,-0.0553 c -1.14725,-12.35514 -0.31495,-36.76724 -0.22313,-50.302203 0.10663,-15.565851 -0.73258,-37.798972 0.22807,-52.75763 z m 18.79138,83.866623 c 14.076,-0.0128 29.10081,2.2165 39.82887,-8.84724 15.59152,-16.17798 11.74004,-39.849605 -6.79069,-51.517575 -11.04794,-6.955564 -20.96641,-3.948233 -32.9434,-4.801264 -0.16686,21.721697 -0.19845,43.444379 -0.0948,65.166079 z"
     id="path37"
     style="stroke-width:0.987305" />
  <path
     fill="#01556f"
     d="m 531.83031,68.166199 c 0.4206,-0.01678 0.84119,-0.02764 1.26178,-0.03456 18.95132,-0.291255 36.25976,4.498162 46.58895,21.518313 5.77968,9.523544 4.59195,19.021418 4.57122,29.642848 l -0.0464,24.67177 c -11.70549,-0.25868 -24.16331,-0.0642 -35.92704,-0.0711 -14.42749,0.0602 -27.73636,1.68335 -39.59291,-7.65951 -7.79675,-6.22299 -12.77276,-15.31409 -13.81042,-25.23651 -1.19069,-10.40915 1.8976,-20.856818 8.55598,-28.946795 7.62496,-9.306337 16.77135,-12.726361 28.39884,-13.88447 z m 9.74964,50.432531 c 1.71001,1.04851 3.40522,2.12171 5.08363,3.22058 6.533,3.09521 11.49618,2.45543 18.6502,2.42483 -0.17969,-15.98645 1.85909,-34.415482 -21.11253,-33.300815 -0.72271,0.03159 -1.44443,0.08392 -2.16516,0.155007 -3.99168,-3.068544 -6.26445,-3.797175 -11.34513,-3.829756 -3.23243,0.753314 -5.32651,1.212411 -8.24301,2.965864 -11.27502,6.780811 -12.04808,25.28686 -0.22411,31.98868 3.61255,2.07038 7.93595,2.50381 11.88814,1.19069 3.39929,-1.09393 4.9385,-2.47813 7.46797,-4.81508 z"
     id="path38"
     style="stroke-width:0.987305" />
  <path
     fill="#01556f"
     d="m 645.10678,77.393552 c 10.23045,-11.878267 29.7238,-12.586165 40.35807,-1.244005 3.25119,3.506908 5.48546,7.834266 6.46388,12.515079 1.17193,5.384761 0.8708,15.595474 0.89845,21.614084 0.0819,11.20295 0.0622,22.4059 -0.0583,33.60885 -6.06699,-0.0573 -12.13497,-0.0642 -18.20196,-0.0207 -0.12933,-8.29928 1.31016,-47.509114 -1.66756,-52.247191 -2.28956,-3.642168 -5.51607,-4.360926 -9.41494,-5.287018 -15.06331,3.931449 -11.02326,16.920429 -11.4162,29.020839 -0.20438,6.27926 0.075,12.93864 0.081,19.24258 l 0.0415,9.06148 c -5.84583,-0.13624 -12.32453,0.0484 -18.21183,0.11058 -0.11551,-9.98363 0.0681,-20.00971 0.007,-29.99136 -0.0435,-6.99703 0.37616,-14.22213 -0.86883,-21.086862 -5.14288,-6.287158 -10.63525,-8.387156 -17.67178,-2.741746 -5.74414,4.60874 -4.02425,15.827488 -4.00253,22.768238 0.0849,10.38151 0.0227,20.76401 -0.18759,31.14454 -5.92482,-0.0908 -11.84963,-0.13033 -17.77445,-0.12045 l -0.009,-74.756762 c 5.83596,0.01678 11.36191,0.02962 17.19491,0.32581 l 0.12539,5.836947 c 5.45683,-5.040192 9.28757,-6.437228 16.47318,-7.035535 9.16022,0.679266 11.89801,3.023128 17.84159,9.282642 z"
     id="path39"
     style="stroke-width:0.987305" />
  <path
     fill="#01556f"
     d="m 463.67171,66.940954 c 1.00311,-0.07405 1.65078,-0.144147 2.6055,0.273483 13.52312,5.913957 21.31592,15.363453 27.04327,28.40674 -0.34852,0.548941 -0.71184,1.088997 -1.08998,1.61918 -10.26995,14.363313 -22.11761,18.284893 -38.50194,20.925933 7.11847,11.3313 15.632,9.75852 24.73989,1.98152 2.88688,2.11382 8.15218,7.05923 10.61156,9.6045 -1.07024,4.67489 -6.69393,9.36064 -10.86628,11.49322 -6.58533,3.34795 -14.25471,3.8574 -21.22508,1.40888 -8.6952,-2.98561 -15.22326,-9.85429 -19.04117,-18.06867 -4.72425,-10.21959 -5.17051,-21.90336 -1.23907,-32.452712 5.16163,-13.519167 14.45316,-19.66909 26.9633,-25.192074 z m -11.34018,35.363286 c 2.8464,-0.50945 5.61974,-0.96459 8.42665,-1.67052 4.29082,-1.283492 13.7887,-3.624393 12.01451,-9.721001 -1.98349,-2.642028 -6.18744,-3.884058 -9.37249,-3.748797 -8.28743,3.175173 -9.0674,7.121431 -11.06867,15.140318 z"
     id="path40"
     style="stroke-width:0.987305" />
  <path
     fill="#01556f"
     d="m 359.07761,163.93676 c 13.26247,0.44824 27.98713,0.12934 41.27823,0.0671 l 45.61053,0.081 157.10787,-0.0454 c 29.38121,-0.0109 59.51574,-0.51932 88.82487,0.13822 l -0.0889,5.00366 -52.82279,-9.8e-4 -225.84108,-0.0661 -78.99329,-0.0276 c -9.71804,-0.0365 -19.51309,-0.12144 -29.24002,0.12835 -1.61424,0.0415 -1.95881,-0.40183 -2.95599,-1.27955 -0.51834,-2.04372 -0.55289,-1.07023 0.0276,-3.03398 3.1732,-2.02398 49.07301,-0.68914 57.09289,-0.9646 z"
     id="path41"
     style="stroke-width:0.987305" />
  <path
     fill="#01556f"
     d="m 431.53494,68.537426 c 1.87489,-0.142172 4.41917,-0.01283 6.35528,0.02172 0.0109,6.983209 0.1866,13.082779 -0.63188,20.045254 -15.27558,0.506487 -21.12536,1.444427 -21.24779,19.46965 -0.077,11.20789 0.63188,24.4516 -0.19548,35.47585 -5.74809,0.21622 -12.35711,0.33864 -18.11113,0.25374 -0.11946,-2.20663 -0.0602,-4.52581 -0.0197,-6.74132 0.23991,-13.01762 -0.075,-26.03129 -0.0898,-39.048903 -0.0109,-9.696323 0.57363,-19.436087 -0.14513,-29.122536 l 17.86726,0.03949 0.081,7.785887 c 5.12115,-4.910855 9.14639,-7.030598 16.1375,-8.178834 z"
     id="path42"
     style="stroke-width:0.987305" />
  <path
     fill="#01556f"
     d="m 392.54626,183.71445 c 7.44527,0.75134 17.75076,-1.53921 23.73481,3.75571 7.13921,6.31579 6.63765,15.96571 1.04457,22.89462 -7.07404,6.11141 -15.72382,4.75584 -24.78728,4.63539 0.13131,-10.31931 0.002,-20.9437 0.008,-31.28572 z m 7.86882,24.38545 c 4.43498,-0.31594 6.9921,-0.003 10.66685,-2.32905 6.68701,-10.33314 -0.76517,-14.76811 -10.68659,-14.87869 -0.004,5.6069 -0.11453,11.63736 0.0197,17.20774 z"
     id="path43"
     style="stroke-width:0.987305" />
  <path
     fill="#01556f"
     d="m 615.22303,183.80726 0.41664,0.36629 c 0.29916,3.8732 0.0958,8.53821 0.0267,12.48151 4.04499,-0.0474 8.32199,0.0642 12.38772,0.0997 l 0.007,-12.82411 8.25782,0.0168 c -0.0247,4.66699 0.5361,27.16569 -0.51834,30.19376 -1.57376,0.71086 -3.65303,0.47489 -5.4519,0.44034 l -1.09689,0.0494 -0.68124,-0.65754 c -0.56375,-3.04979 -0.27447,-7.0849 -0.17377,-10.26699 l -12.67502,-0.0128 -0.0326,10.87812 -7.64865,0.13724 c -0.40085,-9.91156 -0.0612,-20.97431 0.15105,-30.93325 z"
     id="path44"
     style="stroke-width:0.987305" />
  <path
     fill="#01556f"
     d="m 345.58016,183.93067 c 7.84019,0.0385 15.68137,0.0316 23.52254,-0.0197 9.9e-4,2.42284 -0.22017,4.87531 -0.38998,7.29717 -4.49816,-0.36037 -10.53257,-0.20339 -15.14526,-0.21227 -0.0582,1.59449 -0.29027,2.91748 0.36432,4.3313 2.36854,1.98745 8.58363,0.99126 12.41733,0.99521 -0.21227,2.08716 -0.2567,4.62355 -0.35247,6.75415 -2.79901,-0.35543 -7.03455,-0.2251 -9.96684,-0.21819 -0.85501,0.0424 -1.11269,0.12242 -1.95388,0.28928 -0.90042,1.32595 -0.53018,3.29365 -0.43441,5.00563 l 15.60732,-0.0168 c -0.0839,2.19675 -0.0484,4.62947 -0.0652,6.84795 -7.84019,-0.075 -15.68136,-0.10071 -23.52155,-0.08 0.0958,-10.21761 -0.0494,-20.73439 -0.082,-30.97373 z"
     id="path45"
     style="stroke-width:0.987305" />
  <path
     fill="#01556f"
     d="m 513.04585,183.85761 c 7.50747,-0.0217 15.01395,0.0425 22.51944,0.19351 0.075,2.35769 -0.008,4.85359 -0.0444,7.22313 -3.52369,-0.13131 -12.12213,-0.74048 -15.06924,0.33074 -0.69308,6.53399 8.14922,4.37278 12.81818,4.35896 l -0.075,7.14808 c -4.2,-0.0829 -8.40098,-0.12538 -12.60295,-0.12736 -0.37419,1.1591 -0.51241,3.08829 0.0928,4.19012 2.59858,1.60734 10.74583,0.8639 14.50746,0.93597 l 0.12539,6.92693 c -7.43737,-0.12144 -14.87474,-0.13723 -22.31211,-0.0464 -0.28731,-6.48462 -0.61805,-25.00745 0.0405,-31.13368 z"
     id="path46"
     style="stroke-width:0.987305" />
  <path
     fill="#01556f"
     d="m 571.4479,183.6019 c 4.26516,-0.1866 13.2447,1.40987 14.35838,6.3306 -0.65656,1.46911 -3.66685,3.56318 -5.08265,4.69266 -5.31367,-5.44894 -13.20816,-5.04414 -15.11564,2.75261 -0.57066,2.25303 -0.19548,4.6423 1.03766,6.61297 5.7165,8.99336 11.93652,0.70493 14.38898,1.08406 1.59253,1.03667 3.67969,2.94118 5.17842,4.22369 -6.44019,6.28321 -14.54004,8.87784 -22.34074,3.10606 -3.56022,-2.60649 -5.91297,-6.54386 -6.52214,-10.91367 -1.32002,-9.67559 4.60578,-16.65287 14.09773,-17.88898 z"
     id="path47"
     style="stroke-width:0.987305" />
  <path
     fill="#01556f"
     d="m 465.11219,183.95042 26.12903,0.0237 -0.38505,7.29224 c -2.8701,-0.11157 -6.15289,-0.0336 -9.05359,-0.0217 l 0.0523,15.01197 0.0523,8.76924 -7.86586,-0.0681 -0.0336,-23.97177 -8.90549,-0.0533 z"
     id="path48"
     style="stroke-width:0.987305" />
  <path
     fill="#01556f"
     d="m 434.67654,194.00612 c 4.58702,0.076 9.34879,-0.075 13.94865,-0.15599 -0.19154,2.58871 -0.22017,5.63257 -0.30311,8.26473 -1.20155,0.84217 -11.55344,0.57362 -13.93383,0.58942 0.0188,-2.93724 -0.0346,-5.77771 0.28829,-8.69816 z"
     id="path49"
     style="stroke-width:0.987305" />
</svg>
